<?xml version="1.0" encoding="UTF-8" standalone="no"?>
<!-- Created with Inkscape (http://www.inkscape.org/) -->

<svg
   width="800"
   height="800"
   viewBox="0 0 211.66667 211.66667"
   version="1.1"
   id="svg1"
   xml:space="preserve"
   xmlns="http://www.w3.org/2000/svg"
   xmlns:svg="http://www.w3.org/2000/svg"><defs
     id="defs1" /><g
     id="layer3"
     style="display:none;fill:#6c5353;fill-opacity:1"><rect
       style="fill:#6c5353;fill-opacity:1;stroke-width:0.390253"
       id="rect73"
       width="211.79303"
       height="211.37373"
       x="-0.063178569"
       y="0.14646852" /></g><g
     id="g92"
     style="display:inline;opacity:1"
     transform="matrix(0.57564813,0,0,0.56121974,44.410193,25.879927)"><path
       style="font-size:31.7623px;font-family:Goldman;-inkscape-font-specification:Goldman;fill:#ffffff;stroke-width:0.330857"
       d="m 39.963294,262.76297 v -18.67623 h 19.756151 v 3.04918 H 44.155918 v 4.3832 h 11.8791 v 3.14446 h -11.8791 v 5.05021 h 15.690576 l 1.270492,2.69979 q 0,0.12705 -0.857582,0.2541 -0.857582,0.0953 -2.953894,0.0953 z m 24.647569,0 v -16.13525 l -0.317623,-2.54098 h 4.573772 l 10.799182,11.30738 1.23873,1.71516 h 0.349385 v -13.02254 h 4.192624 v 18.67623 H 81.41312 l -11.05328,-11.49795 -1.23873,-1.49283 h -0.317623 v 12.99078 z m 31.412922,0 q -2.255124,0 -3.525616,-0.63525 -1.270492,-0.63524 -1.778688,-1.90573 -0.508197,-1.2705 -0.508197,-3.14447 v -7.08299 q 0,-3.04919 1.365779,-4.47849 1.365779,-1.46107 4.446722,-1.46107 h 9.560455 q 2.1916,0 3.33504,0.2541 1.1752,0.22234 1.1752,0.47644 l -0.63524,2.63627 q -0.53996,-0.0953 -3.20799,-0.19057 -2.63628,-0.12705 -7.686481,-0.12705 h -1.619878 q -2.540984,0 -2.540984,2.25512 v 8.09939 q 0,1.07991 0.539959,1.6834 0.571722,0.57172 2.001025,0.57172 h 1.302255 q 3.049184,0 5.145494,-0.0318 2.09631,-0.0635 3.46209,-0.0953 v -4.31967 l -1.90574,0.0318 -4.16086,0.31762 v -3.1127 h 10.22746 v 8.9252 l 0.31762,0.66701 q 0,0.2541 -1.33401,0.47644 -1.33402,0.19057 -4.51025,0.19057 z m 19.756155,0 v -18.67623 h 4.19262 v 18.67623 z m 9.59221,0 v -16.13525 l -0.31762,-2.54098 h 4.57377 l 10.79918,11.30738 1.23873,1.71516 h 0.34938 v -13.02254 h 4.19263 v 18.67623 h -4.03381 l -11.05328,-11.49795 -1.23873,-1.49283 h -0.31763 v 12.99078 z m 25.91804,0 v -18.67623 h 19.75615 v 3.04918 h -15.56353 v 4.3832 h 11.8791 v 3.14446 h -11.8791 v 5.05021 h 15.69058 l 1.27049,2.69979 q 0,0.12705 -0.85758,0.2541 -0.85758,0.0953 -2.95389,0.0953 z"
       id="ZENON"
       transform="scale(0.98738819,1.0127729)"
       aria-label="ENGINE" /><path
       d="m -28.218537,238.12213 v -7.98188 l 26.1969407,-22.8541 H -28.218537 v -9.27808 h 45.094213 v 7.91366 l -26.8109314,22.8541 H 15.170146 l 4.093272,8.59587 q 0,0.27288 -1.841973,0.54577 -1.841972,0.20466 -6.344571,0.20466 z m 54.986353,0 v -40.11406 h 43.798009 v 9.27808 H 40.070949 v 5.66236 h 22.581217 v 9.48275 H 40.070949 v 6.34457 h 29.403337 l 4.093272,8.59587 q 0,0.27288 -1.841972,0.54577 -1.841973,0.20466 -6.344572,0.20466 z m 54.304026,0 v -34.65637 l -0.682212,-5.45769 h 12.552701 l 19.238379,19.51126 2.66063,3.00173 h 0.75043 v -22.51299 h 13.09847 v 40.11406 H 117.2973 L 97.513151,218.4062 94.852524,215.19981 h -0.682212 v 22.92232 z m 71.700478,0 q -7.23145,0 -10.57429,-3.2064 -3.27462,-3.27461 -3.27462,-10.36962 v -13.03025 q 0,-6.95856 3.27462,-10.23318 3.27462,-3.27461 10.57429,-3.27461 h 19.92059 q 7.16322,0 10.43784,3.27461 3.34284,3.27462 3.34284,10.23318 v 13.03025 q 0,7.09501 -3.34284,10.36962 -3.34284,3.2064 -10.43784,3.2064 z m 4.70726,-9.27808 h 10.57429 q 5.32125,0 5.32125,-4.84371 v -11.93871 q 0,-4.77548 -5.32125,-4.77548 h -10.57429 q -2.72885,0 -4.09327,1.09154 -1.36443,1.09154 -1.36443,3.68394 v 11.93871 q 0,2.52419 1.36443,3.68395 1.36442,1.15976 4.09327,1.15976 z m 39.90939,9.27808 v -34.65637 l -0.68221,-5.45769 h 12.5527 l 19.23838,19.51126 2.66063,3.00173 h 0.75043 v -22.51299 h 13.09847 v 40.11406 h -11.39294 l -19.78415,-19.71593 -2.66062,-3.20639 h -0.68222 v 22.92232 z"
       id="text2"
       style="font-weight:bold;font-size:68.2212px;font-family:Goldman;-inkscape-font-specification:'Goldman Bold';fill:#ffffff;stroke-width:0.710637"
       transform="scale(0.98738815,1.0127729)"
       aria-label="ZENON" /><path
       style="display:inline;opacity:1;fill:#ffffff;fill-opacity:1;stroke-width:0.281224"
       d="M 164.53452,16.570275 21.643797,157.11632 c 0,0 2.810742,19.18504 22.00576,27.48565 0,0 60.614143,-9.74846 121.145213,0.13012 0,0 24.85363,-22.81361 23.29215,-64.71345 0,0 -23.51372,28.75111 -107.402573,29.45417 L 188.47729,39.081682 c 0,0 -4.25738,-16.739251 -23.94277,-22.511407 z"
       id="path91" /><path
       style="display:inline;fill:#ffffff;fill-opacity:1;stroke-width:0.281224"
       d="m 23.388872,79.810418 c 0,0 -3.953921,-35.314673 22.124881,-64.084032 0,0 57.932077,10.574516 113.331067,0.07803 L 124.29886,49.54772 c 0,0 -81.552106,0.328601 -100.909988,30.262706 z"
       id="path92" /></g><g
     id="layer2"
     style="display:none;opacity:1"><path
       style="display:inline;opacity:1;fill:#000000;fill-opacity:1;stroke-width:0.264583"
       d="M 162.45631,27.178072 28.021071,159.4074 c 0,0 2.644418,18.04977 20.703581,25.8592 0,0 57.027328,-9.1716 113.976508,0.12242 0,0 23.38293,-21.46363 21.91385,-60.88407 0,0 -22.12231,27.04978 -101.047082,27.71124 L 184.98228,48.357379 c 0,0 -4.00545,-15.748715 -22.52597,-21.179307 z"
       id="z_bottom" /><path
       style="display:inline;fill:#000000;fill-opacity:1;stroke-width:0.264583"
       d="m 28.22175,86.676013 c 0,0 -3.71995,-33.224945 20.815653,-60.291893 0,0 54.503977,9.948775 106.624757,0.07341 l -32.50172,31.746562 c 0,0 -76.7263,0.309156 -94.93869,28.471926 z"
       id="z_top" /></g></svg>
