<?xml version="1.0" encoding="UTF-8" standalone="no"?>
<!-- Created with Inkscape (http://www.inkscape.org/) -->

<svg
   width="800"
   height="800"
   viewBox="0 0 211.66667 211.66667"
   version="1.1"
   id="svg1"
   xml:space="preserve"
   xmlns="http://www.w3.org/2000/svg"
   xmlns:svg="http://www.w3.org/2000/svg"><defs
     id="defs1" /><g
     id="layer3"
     style="display:none;fill:#6c5353;fill-opacity:1"><rect
       style="fill:#6c5353;fill-opacity:1;stroke-width:0.390253"
       id="rect73"
       width="211.79303"
       height="211.37373"
       x="-0.063178569"
       y="0.14646852" /></g><g
     id="g92"
     style="display:inline;opacity:1"
     transform="matrix(0.57564813,0,0,0.56121974,44.410193,25.879927)"><text
       xml:space="preserve"
       style="font-style:normal;font-variant:normal;font-weight:bold;font-stretch:normal;font-size:31.7623px;font-family:Goldman;-inkscape-font-specification:'Goldman Bold';text-align:start;writing-mode:lr-tb;direction:ltr;text-anchor:start;display:inline;opacity:1;fill:#ffffff;fill-opacity:1;stroke-width:0.330857"
       x="37.42231"
       y="262.76297"
       id="ZENON"
       transform="scale(0.98738819,1.0127729)"><tspan
         id="tspan94"
         style="font-style:normal;font-variant:normal;font-weight:normal;font-stretch:normal;font-size:31.7623px;font-family:Goldman;-inkscape-font-specification:Goldman;fill:#ffffff;stroke-width:0.330857"
         x="37.42231"
         y="262.76297">ENGINE</tspan></text><text
       xml:space="preserve"
       style="font-style:normal;font-variant:normal;font-weight:bold;font-stretch:normal;font-size:68.2212px;font-family:Goldman;-inkscape-font-specification:'Goldman Bold';text-align:start;writing-mode:lr-tb;direction:ltr;text-anchor:start;display:inline;opacity:1;fill:#ffffff;fill-opacity:1;stroke-width:0.710637"
       x="-31.629597"
       y="238.12213"
       id="text2"
       transform="scale(0.98738815,1.0127729)"><tspan
         id="tspan2"
         style="font-style:normal;font-variant:normal;font-weight:bold;font-stretch:normal;font-size:68.2212px;font-family:Goldman;-inkscape-font-specification:'Goldman Bold';fill:#ffffff;stroke-width:0.710637"
         x="-31.629597"
         y="238.12213">ZENON</tspan></text><path
       style="display:inline;opacity:1;fill:#ffffff;fill-opacity:1;stroke-width:0.281224"
       d="M 164.53452,16.570275 21.643797,157.11632 c 0,0 2.810742,19.18504 22.00576,27.48565 0,0 60.614143,-9.74846 121.145213,0.13012 0,0 24.85363,-22.81361 23.29215,-64.71345 0,0 -23.51372,28.75111 -107.402573,29.45417 L 188.47729,39.081682 c 0,0 -4.25738,-16.739251 -23.94277,-22.511407 z"
       id="path91" /><path
       style="display:inline;fill:#ffffff;fill-opacity:1;stroke-width:0.281224"
       d="m 23.388872,79.810418 c 0,0 -3.953921,-35.314673 22.124881,-64.084032 0,0 57.932077,10.574516 113.331067,0.07803 L 124.29886,49.54772 c 0,0 -81.552106,0.328601 -100.909988,30.262706 z"
       id="path92" /></g><g
     id="layer2"
     style="display:none;opacity:1"><path
       style="display:inline;opacity:1;fill:#000000;fill-opacity:1;stroke-width:0.264583"
       d="M 162.45631,27.178072 28.021071,159.4074 c 0,0 2.644418,18.04977 20.703581,25.8592 0,0 57.027328,-9.1716 113.976508,0.12242 0,0 23.38293,-21.46363 21.91385,-60.88407 0,0 -22.12231,27.04978 -101.047082,27.71124 L 184.98228,48.357379 c 0,0 -4.00545,-15.748715 -22.52597,-21.179307 z"
       id="z_bottom" /><path
       style="display:inline;fill:#000000;fill-opacity:1;stroke-width:0.264583"
       d="m 28.22175,86.676013 c 0,0 -3.71995,-33.224945 20.815653,-60.291893 0,0 54.503977,9.948775 106.624757,0.07341 l -32.50172,31.746562 c 0,0 -76.7263,0.309156 -94.93869,28.471926 z"
       id="z_top" /></g></svg>
