<?xml version="1.0" encoding="UTF-8" standalone="no"?>
<!-- Created with Inkscape (http://www.inkscape.org/) -->

<svg
   width="800"
   height="800"
   viewBox="0 0 211.66667 211.66667"
   version="1.1"
   id="svg1"
   xml:space="preserve"
   xmlns="http://www.w3.org/2000/svg"
   xmlns:svg="http://www.w3.org/2000/svg"><defs
     id="defs1" /><g
     id="g92"
     style="display:inline;opacity:1"
     transform="matrix(0.75526169,0,0,0.73633134,25.24494,-16.419499)"><g
       id="layer1"
       transform="matrix(1.3240444,0,0,1.3580843,-33.425421,22.299063)"
       style="display:none;fill:#66ff00"><rect
         style="display:inline;opacity:1;fill:#333333;stroke-width:0.203535"
         id="rect1"
         width="212.19585"
         height="210.07915"
         x="-0.26458272"
         y="1.3229165" /></g><path
       style="font-size:31.7623px;font-family:Goldman;-inkscape-font-specification:Goldman;display:inline;opacity:1;fill:#ffffff;stroke-width:0.292515"
       d="m 44.167083,261.06463 v -15.97385 h 18.054992 v 2.60798 H 47.998688 v 3.74896 h 10.856219 v 2.68949 H 47.998688 v 4.31947 h 14.339496 l 1.161093,2.30911 q 0,0.10867 -0.783737,0.21734 -0.783738,0.0815 -2.699541,0.0815 z m 22.525221,0 v -13.80054 l -0.290274,-2.17331 h 4.179934 l 9.86929,9.67125 1.132066,1.46698 h 0.3193 v -11.13823 h 3.831608 v 15.97385 H 82.047755 L 71.94625,251.2304 70.814183,249.95355 h -0.290274 v 11.11108 z m 28.708024,0 q -2.06094,0 -3.222032,-0.54334 -1.161093,-0.54332 -1.62553,-1.62997 -0.464437,-1.08666 -0.464437,-2.68947 v -6.05813 q 0,-2.60798 1.248175,-3.83045 1.248175,-1.24967 4.063824,-1.24967 h 8.737222 q 2.00288,0 3.04788,0.21736 1.07399,0.19016 1.07399,0.40749 l -0.58053,2.2548 q -0.49346,-0.0815 -2.93176,-0.163 -2.40928,-0.10866 -7.024616,-0.10866 H 96.24212 q -2.322185,0 -2.322185,1.92881 v 6.92745 q 0,0.92364 0.493464,1.43981 0.522493,0.48902 1.828721,0.48902 h 1.190122 q 2.786628,0 4.702418,-0.0271 1.91581,-0.0543 3.16398,-0.0815 v -3.69465 l -1.74163,0.0271 -3.802584,0.27167 v -2.66232 h 9.346794 v 7.63377 l 0.29029,0.57049 q 0,0.21733 -1.21917,0.40751 -1.21913,0.16299 -4.12187,0.16299 z m 18.055002,0 v -15.97385 h 3.83159 v 15.97385 z m 8.76624,0 v -13.80054 l -0.29026,-2.17331 h 4.17992 l 9.86929,9.67125 1.13206,1.46698 h 0.31932 v -11.13823 h 3.83159 v 15.97385 h -3.68646 l -10.1015,-9.83423 -1.13207,-1.27685 h -0.29029 v 11.11108 z m 23.68629,0 v -15.97385 h 18.055 v 2.60798 h -14.22339 v 3.74896 h 10.85622 v 2.68949 h -10.85622 v 4.31947 h 14.33951 l 1.16108,2.30911 q 0,0.10867 -0.78373,0.21734 -0.78375,0.0815 -2.69954,0.0815 z"
       id="ZENON"
       aria-label="ENGINE" /><path
       d="M 2.9219216,238.88911 V 234.2973 L 27.06583,215.59868 H 2.9219216 v -4.54447 H 36.690766 v 4.54447 l -24.633311,18.74595 h 24.361421 l 2.175126,4.02376 q 0,0.18935 -1.46821,0.37872 -1.46821,0.142 -5.05717,0.142 z m 41.4361864,0 v -27.8349 H 78.18133 v 4.54447 H 51.536027 v 6.53268 h 20.337436 v 4.68649 H 51.536027 v 7.52678 h 26.862816 l 2.175126,4.02376 q 0,0.18935 -1.468211,0.37872 -1.468209,0.142 -5.05717,0.142 z m 42.197503,0 v -24.04784 l -0.543782,-3.78706 h 7.830458 l 18.488573,16.85241 2.12075,2.55629 h 0.59817 v -19.4087 h 7.17792 v 27.8349 h -6.90603 l -18.92361,-17.13646 -2.120749,-2.2249 h -0.543782 v 19.36136 z m 53.780029,0 q -3.80646,0 -5.9816,-0.94677 -2.17512,-0.94674 -3.09956,-2.84029 -0.87005,-1.89353 -0.87005,-4.6865 v -10.93514 q 0,-2.7456 0.87005,-4.59181 0.87006,-1.89353 3.04518,-2.84031 2.17513,-0.99408 6.03598,-0.99408 h 15.87843 q 3.80648,0 5.92721,0.99408 2.17514,0.94678 3.04518,2.84031 0.92443,1.84621 0.92443,4.59181 v 10.93514 q 0,4.16579 -2.12075,6.34334 -2.12074,2.13022 -7.77607,2.13022 z m 1.57698,-4.54448 h 12.77886 q 2.01199,0 3.09955,-0.89941 1.14194,-0.89944 1.14194,-2.46161 v -12.07124 q 0,-1.37282 -1.14194,-2.31959 -1.14194,-0.9941 -3.09955,-0.9941 h -12.77886 q -1.95763,0 -3.15395,0.89944 -1.19631,0.89941 -1.19631,2.41425 v 12.07124 q 0,1.6095 1.14194,2.50895 1.19632,0.85207 3.20832,0.85207 z m 32.89882,4.54448 v -24.04784 l -0.54378,-3.78706 h 7.83044 l 18.4886,16.85241 2.12075,2.55629 h 0.59815 v -19.4087 h 7.17792 v 27.8349 h -6.90602 l -18.92361,-17.13646 -2.12075,-2.2249 h -0.54377 v 19.36136 z"
       id="text5"
       style="font-size:37.4612px;font-family:Goldman;-inkscape-font-specification:Goldman;display:inline;opacity:1;fill:#ffffff;fill-opacity:1;stroke-width:0.5285"
       aria-label="ZENON" /><path
       style="display:inline;opacity:1;fill:#ffffff;fill-opacity:1;stroke-width:0.190934"
       d="M 146.13627,74.341866 49.122805,169.7635 c 0,0 2.90955,13.25103 14.940473,20.85615 35.464873,-5.757 54.827082,-5.2321 82.249692,0.0883 0,0 16.87398,-17.68415 15.81383,-46.1314 0,0 -15.96426,19.52012 -72.919321,19.99746 L 162.39184,89.625661 c 0,0 -2.89048,-11.364858 -16.25557,-15.283775 z"
       id="path91" /><path
       style="display:inline;fill:#ffffff;fill-opacity:1;stroke-width:0.190934"
       d="m 50.540491,117.13591 c 0,0 1.363004,-23.834476 19.068806,-43.366988 0,0 33.650463,6.460752 71.262763,-0.665683 L 116.71695,96.731386 C 71.091002,96.993404 59.525717,106.28962 50.540491,117.13591 Z"
       id="path92" /></g><g
     id="layer2"
     style="display:none;opacity:1"><path
       style="display:inline;opacity:1;fill:#000000;fill-opacity:1;stroke-width:0.264583"
       d="M 162.45631,27.178072 28.021071,159.4074 c 0,0 2.644418,18.04977 20.703581,25.8592 0,0 57.027328,-9.1716 113.976508,0.12242 0,0 23.38293,-21.46363 21.91385,-60.88407 0,0 -22.12231,27.04978 -101.047082,27.71124 L 184.98228,48.357379 c 0,0 -4.00545,-15.748715 -22.52597,-21.179307 z"
       id="z_bottom" /><path
       style="display:inline;fill:#000000;fill-opacity:1;stroke-width:0.264583"
       d="m 28.22175,86.676013 c 0,0 -3.71995,-33.224945 20.815653,-60.291893 0,0 54.503977,9.948775 106.624757,0.07341 l -32.50172,31.746562 c 0,0 -76.7263,0.309156 -94.93869,28.471926 z"
       id="z_top" /></g></svg>
